<?xml version="1.0" encoding="utf-8"?>
<!-- Generator: Adobe Illustrator 26.5.1, SVG Export Plug-In . SVG Version: 6.00 Build 0)  -->
<svg version="1.1" id="Layer_1" xmlns="http://www.w3.org/2000/svg" xmlns:xlink="http://www.w3.org/1999/xlink" x="0px" y="0px"
	 viewBox="0 0 2661 1054" style="enable-background:new 0 0 2661 1054;" xml:space="preserve">
<style type="text/css">
	.st0{fill:#CCC2AD;}
	.st1{fill:#231F20;}
	.st2{fill:#74584B;}
	.st3{fill:#F8F8F8;}
	.st4{fill:#8F6D5D;}
	.st5{fill:#BEA692;}
	.st6{fill:#E8E5E2;}
</style>
<g>
	<path class="st0" d="M2503.61,1054H157.39C70.46,1054,0,983.54,0,896.61V157.39C0,70.46,70.46,0,157.39,0h2346.22
		C2590.54,0,2661,70.46,2661,157.39v739.22C2661,983.54,2590.54,1054,2503.61,1054z"/>
	<g>
		<g>
			<path class="st1" d="M956.14,107.36h-40.85H360.01h-15.13c-14.21,0-25.72,11.52-25.72,25.72v213.34v328.32v201.23
				c0,14.21,11.52,25.72,25.72,25.72h15.13h13.62v76.71l38.51-23l38.66,23V901.7h464.5h40.7c28.49,0,51.59-23.1,51.59-51.59v-691.3
				C1007.58,130.4,984.55,107.36,956.14,107.36z"/>
			<g>
				<g>
					<g>
						<path class="st2" d="M999.87,869.93H403.89V75.59h596.13c28.41,0,51.44,23.03,51.44,51.44v691.3
							C1051.46,846.83,1028.36,869.93,999.87,869.93z"/>
						<path class="st3" d="M982,853.28H408.43V93.75h573.58c26.66,0,48.27,21.61,48.27,48.27v662.84
							C1030.43,831.64,1008.79,853.28,982,853.28z"/>
						<path class="st4" d="M959.17,869.93H388.76c-14.21,0-25.72-11.52-25.72-25.72V101.31c0-14.21,11.52-25.72,25.72-25.72h570.41
							c28.41,0,51.44,23.03,51.44,51.44v691.45C1010.61,846.89,987.58,869.93,959.17,869.93z"/>
						<rect x="363.04" y="314.65" class="st5" width="647.57" height="328.32"/>
						<polygon class="st6" points="417.51,869.93 417.51,946.64 456.01,923.64 494.67,946.64 494.67,869.93 						"/>
					</g>
				</g>
				<g>
					<path d="M419.58,556.18c5.75,22.01,21.33,35.21,48.07,35.21c30.13,0,42.32-13.88,42.32-32.84c0-19.3-8.12-28.78-46.04-37.92
						c-43.67-10.49-54.51-23.7-54.51-46.04c0-23.36,17.6-45.03,55.86-45.03c38.25,0,56.54,23.36,59.25,47.4H507.6
						c-3.05-14.22-14.22-31.82-43-31.82c-29.45,0-37.92,14.56-37.92,28.1c0,15.57,8.12,23.36,41.64,31.48
						c47.73,11.51,59.58,27.08,59.58,52.47c0,30.81-25.05,49.77-60.6,49.77c-38.59,0-60.26-20.31-65-50.78H419.58z"/>
					<path d="M543.49,433.63h31.48v-52.81h16.93v52.81h40.29v15.91H591.9v110.03c0,18.96,4.06,29.79,20.31,29.79
						c5.08,0,12.19-0.34,17.6-2.03v14.9c-5.75,2.37-13.88,3.05-20.99,3.05c-21.67,0-33.86-10.83-33.86-37.92V449.54h-31.48V433.63z"
						/>
					<path d="M801.79,517.93c0,47.06-26.07,89.04-76.51,89.04c-45.7,0-74.14-37.58-74.14-88.7c0-48.41,26.75-88.7,75.83-88.7
						C772,429.56,801.79,464.77,801.79,517.93z M669.08,518.26c0,40.29,21.67,72.79,57.55,72.79c36.56,0,57.21-30.13,57.21-72.79
						c0-39.95-20.31-72.79-57.89-72.79C687.36,445.48,669.08,477.64,669.08,518.26z M688.38,385.89v-32.84h16.93v32.84H688.38z
						 M746.95,385.89v-32.84h16.93v32.84H746.95z"/>
					<path d="M843.77,476.28c0-14.9,0-29.11-0.34-42.66h16.59c0.68,5.42,1.02,27.42,0.68,32.16c7.45-17.27,21.33-36.22,56.2-36.22
						c30.13,0,56.88,16.93,56.88,63.65V602.9h-16.93V495.92c0-30.13-12.53-49.77-41.98-49.77c-40.29,0-54.17,33.52-54.17,70.42
						v86.33h-16.93V476.28z"/>
				</g>
			</g>
		</g>
		<g>
			<path d="M1399.13,438.4V176.3h109.27c11.56,0,22.15,2.4,31.75,7.2c9.6,4.8,17.96,11.2,25.1,19.2c7.14,8,12.67,16.98,16.61,26.95
				c3.93,9.97,5.91,20.12,5.91,30.46c0,14.28-3.2,27.87-9.6,40.79c-6.4,12.92-15.38,23.38-26.95,31.38c-11.57,8-25.1,12-40.61,12
				h-78.26v94.14H1399.13z M1432.35,314.73h76.42c9.1,0,17.04-2.46,23.81-7.38c6.77-4.92,12.06-11.57,15.87-19.94
				c3.81-8.36,5.72-17.47,5.72-27.32c0-10.34-2.21-19.62-6.64-27.87c-4.43-8.24-10.22-14.7-17.35-19.38
				c-7.14-4.67-15.01-7.01-23.63-7.01h-74.2V314.73z"/>
			<path d="M1623.94,209.52v-40.61h32.49v40.61H1623.94z M1623.94,438.4V245.7h32.49v192.7H1623.94z"/>
			<path d="M1693.71,417.36l121.46-146.93h-118.13v-23.63h154.68v21.04L1731,414.77h121.08v23.63h-158.37V417.36z"/>
			<path d="M1875.71,417.36l121.46-146.93h-118.13v-23.63h154.68v21.04l-120.72,146.93h121.08v23.63h-158.37V417.36z"/>
			<path d="M2057.7,383.03c0-12.23,3.51-22.81,10.52-31.74c7.01-8.93,16.67-15.84,28.98-20.73c12.3-4.89,26.58-7.34,42.82-7.34
				c8.61,0,17.72,0.68,27.32,2.03c9.6,1.36,18.09,3.39,25.47,6.09V317.4c0-14.56-4.43-26.03-13.29-34.4
				c-8.86-8.38-21.41-12.56-37.65-12.56c-10.58,0-20.74,1.91-30.46,5.72c-9.73,3.82-20,9.29-30.83,16.43l-11.81-22.89
				c12.55-8.61,25.1-15.07,37.66-19.38c12.55-4.3,25.59-6.46,39.13-6.46c24.61,0,44.05,6.77,58.33,20.32
				c14.27,13.54,21.41,32.39,21.41,56.54v80.88c0,3.91,0.8,6.77,2.4,8.6c1.6,1.83,4.25,2.87,7.94,3.11v25.1
				c-3.2,0.49-5.97,0.86-8.31,1.11c-2.34,0.24-4.25,0.37-5.72,0.37c-7.63,0-13.35-2.09-17.17-6.28c-3.82-4.18-5.97-8.61-6.46-13.29
				l-0.74-12.18c-8.37,10.83-19.32,19.2-32.86,25.1c-13.54,5.91-26.95,8.86-40.24,8.86c-12.8,0-24.24-2.63-34.33-7.88
				c-10.09-5.26-17.97-12.35-23.63-21.28C2060.53,404,2057.7,394.03,2057.7,383.03z M2183.22,396.53c2.95-3.41,5.29-6.88,7.01-10.42
				c1.72-3.53,2.58-6.52,2.58-8.95V353.4c-7.63-2.92-15.63-5.17-24-6.76c-8.37-1.58-16.61-2.38-24.73-2.38
				c-16.49,0-29.84,3.23-40.05,9.69c-10.21,6.46-15.32,15.29-15.32,26.5c0,6.09,1.66,12,4.98,17.73
				c3.32,5.73,8.24,10.42,14.77,14.07c6.52,3.66,14.58,5.48,24.18,5.48c10.09,0,19.69-2.01,28.79-6.03
				C2170.54,407.68,2177.8,402.62,2183.22,396.53z"/>
			<path d="M1361.65,680.57V881.4h-33.22V619.29h28.06l160.22,204.89V619.66h33.22V881.4h-30.27L1361.65,680.57z"/>
			<path d="M1688.36,885.09c-14.52,0-27.69-2.63-39.5-7.88c-11.81-5.25-22.03-12.46-30.64-21.62c-8.62-9.16-15.26-19.72-19.93-31.7
				c-4.68-11.97-7.01-24.55-7.01-37.74c0-13.43,2.34-26.14,7.01-38.11c4.67-11.97,11.32-22.54,19.93-31.7
				c8.61-9.16,18.88-16.37,30.83-21.62c11.93-5.25,25.04-7.88,39.32-7.88c14.52,0,27.69,2.63,39.5,7.88
				c11.81,5.25,22.09,12.46,30.83,21.62c8.73,9.16,15.44,19.73,20.12,31.7c4.67,11.97,7.01,24.68,7.01,38.11
				c0,13.19-2.34,25.77-7.01,37.74c-4.68,11.97-11.32,22.54-19.93,31.7c-8.62,9.16-18.89,16.37-30.83,21.62
				C1716.11,882.46,1702.88,885.09,1688.36,885.09z M1624.5,786.52c0,13.15,2.89,25.09,8.68,35.81
				c5.78,10.72,13.47,19.19,23.07,25.39c9.6,6.21,20.3,9.32,32.12,9.32s22.58-3.17,32.3-9.5c9.72-6.33,17.47-14.92,23.26-25.76
				c5.78-10.84,8.67-22.84,8.67-35.99c0-13.15-2.9-25.09-8.67-35.8c-5.79-10.72-13.54-19.24-23.26-25.58
				c-9.72-6.33-20.49-9.5-32.3-9.5s-22.52,3.23-32.12,9.68c-9.6,6.46-17.29,15.04-23.07,25.76
				C1627.39,761.06,1624.5,773.12,1624.5,786.52z"/>
			<path d="M1922.04,872.91c-2.71,1.23-6.4,2.83-11.08,4.8c-4.68,1.97-10.09,3.69-16.24,5.17c-6.15,1.48-12.68,2.21-19.57,2.21
				c-7.88,0-15.14-1.42-21.78-4.25c-6.64-2.83-11.94-7.26-15.87-13.29c-3.94-6.03-5.91-13.6-5.91-22.7V715.27h-26.21V689.8h26.21
				v-64.23h32.49v64.23h43.19v25.47h-43.19v119.61c0.49,6.89,2.83,12,7.01,15.32c4.18,3.32,9.1,4.98,14.77,4.98
				c6.4,0,12.3-1.11,17.72-3.32c5.41-2.21,8.98-3.81,10.71-4.8L1922.04,872.91z"/>
			<path d="M2035.01,885.09c-14.52,0-27.75-2.63-39.68-7.88c-11.94-5.25-22.28-12.46-31.01-21.62c-8.74-9.16-15.5-19.72-20.3-31.7
				c-4.8-11.97-7.2-24.67-7.2-38.11c0-18.08,4.18-34.56,12.55-49.47c8.36-14.9,19.99-26.87,34.89-35.91
				c14.89-9.04,31.93-13.56,51.13-13.56c19.44,0,36.36,4.58,50.76,13.75c14.4,9.17,25.59,21.15,33.59,35.94
				c7.99,14.79,12,30.74,12,47.86c0,2.45-0.06,4.83-0.18,7.15c-0.13,2.32-0.31,4.1-0.55,5.32h-159.85
				c0.98,12.41,4.49,23.42,10.52,33.03c6.03,9.61,13.84,17.15,23.44,22.63c9.6,5.47,19.94,8.21,31.01,8.21
				c11.81,0,22.95-2.95,33.41-8.86c10.46-5.91,17.66-13.66,21.6-23.26l28.06,7.75c-4.19,9.36-10.4,17.72-18.64,25.1
				c-8.25,7.38-17.97,13.17-29.16,17.35C2060.17,883,2048.05,885.09,2035.01,885.09z M1970.04,774.34h131.42
				c-0.99-12.4-4.56-23.35-10.71-32.84c-6.16-9.49-14.03-16.91-23.63-22.26c-9.6-5.35-20.18-8.03-31.75-8.03
				c-11.32,0-21.78,2.68-31.38,8.03c-9.6,5.35-17.41,12.77-23.44,22.26C1974.52,750.99,1971.02,761.94,1970.04,774.34z"/>
			<path d="M2233.98,885.09c-16,0-31.01-2.65-45.04-7.94s-26.09-13.23-36.18-23.81l12.55-22.89c11.07,10.34,22.15,17.72,33.22,22.15
				s22.39,6.64,33.96,6.64c13.29,0,24.12-2.49,32.49-7.46c8.36-4.97,12.55-12.32,12.55-22.03c0-7.08-2.16-12.33-6.46-15.75
				c-4.31-3.42-10.4-6.29-18.27-8.61c-7.88-2.32-17.23-4.95-28.06-7.88c-13.29-3.91-24.49-8.06-33.59-12.45
				c-9.11-4.4-16-9.89-20.67-16.49c-4.68-6.6-7.01-14.9-7.01-24.92c0-12.21,3.2-22.53,9.6-30.96c6.4-8.43,15.19-14.84,26.4-19.24
				c11.2-4.39,23.93-6.6,38.21-6.6c14.27,0,27.19,2.21,38.76,6.64c11.56,4.43,21.53,10.95,29.9,19.57l-14.77,22.52
				c-7.63-7.87-16-13.72-25.1-17.54c-9.11-3.81-19.32-5.72-30.64-5.72c-6.64,0-13.17,0.8-19.57,2.38
				c-6.4,1.59-11.69,4.39-15.87,8.42c-4.19,4.03-6.28,9.7-6.28,17.02c0,6.1,1.66,10.92,4.98,14.46c3.32,3.54,8.24,6.53,14.77,8.97
				c6.52,2.45,14.46,5.13,23.81,8.05c14.52,4.15,27.13,8.3,37.84,12.45c10.71,4.15,19.01,9.52,24.92,16.1
				c5.91,6.59,8.86,15.74,8.86,27.45c0,18.06-6.89,32.15-20.67,42.28C2274.83,880.03,2256.62,885.09,2233.98,885.09z"/>
		</g>
	</g>
</g>
</svg>
